HIERARCHY
ROOT Hips
{
	OFFSET 0.000000 88.474243 0.000000
	CHANNELS 6 Xposition Yposition Zposition Zrotation Yrotation Xrotation 
	JOINT Hips_Spine
	{
		OFFSET 0.000000 0.000000 0.000000
		CHANNELS 3 Zrotation Yrotation Xrotation
		JOINT Spine
		{
			OFFSET 0.005100 8.711998 -0.691000
			CHANNELS 3 Zrotation Yrotation Xrotation
			JOINT Spine1
			{
				OFFSET -0.009200 8.660301 -1.275000
				CHANNELS 3 Zrotation Yrotation Xrotation
				JOINT Spine2
				{
					OFFSET 0.006300 9.852501 -1.857000
					CHANNELS 3 Zrotation Yrotation Xrotation
					JOINT Spine2_Neck
					{
						OFFSET 0.000000 0.000000 0.000000
						CHANNELS 3 Zrotation Yrotation Xrotation
						JOINT Neck
						{
							OFFSET 0.016300 11.420799 -0.263300
							CHANNELS 3 Zrotation Yrotation Xrotation
							End Site #name: Head
							{
								OFFSET -0.019200 9.262405 2.362500
							}
						}
					}
					JOINT Spine2_LeftShoulder
					{
						OFFSET 0.000000 0.000000 0.000000
						CHANNELS 3 Zrotation Yrotation Xrotation
						JOINT LeftShoulder
						{
							OFFSET 5.616900 6.732201 -0.345700
							CHANNELS 3 Zrotation Yrotation Xrotation
							JOINT LeftArm
							{
								OFFSET 10.664888 -0.183372 -2.440700
								CHANNELS 3 Zrotation Yrotation Xrotation
								JOINT LeftForeArm
								{
									OFFSET 27.459126 0.000000 0.000000
									CHANNELS 3 Zrotation Yrotation Xrotation
									End Site #name: LeftHand
									{
										OFFSET 21.306858 0.000000 0.000000
									}
								}
							}
						}
					}
					JOINT Spine2_RightShoulder
					{
						OFFSET 0.000000 0.000000 0.000000
						CHANNELS 3 Zrotation Yrotation Xrotation
						JOINT RightShoulder
						{
							OFFSET -5.580300 6.737503 -0.344400
							CHANNELS 3 Zrotation Yrotation Xrotation
							JOINT RightArm
							{
								OFFSET -10.679335 -0.188484 -2.383900
								CHANNELS 3 Zrotation Yrotation Xrotation
								JOINT RightForeArm
								{
									OFFSET -27.503529 0.000000 0.000000
									CHANNELS 3 Zrotation Yrotation Xrotation
									End Site #name: RightHand
									{
										OFFSET -21.306808 0.000000 0.000000
									}
								}
							}
						}
					}
				}
			}
		}
	}
	JOINT Hips_LeftUpLeg
	{
		OFFSET 0.000000 0.000000 0.000000
		CHANNELS 3 Zrotation Yrotation Xrotation
		JOINT LeftUpLeg
		{
			OFFSET 6.857700 -6.739601 0.312100
			CHANNELS 3 Zrotation Yrotation Xrotation
			JOINT LeftLeg
			{
				OFFSET -0.367590 -34.731552 -4.572400
				CHANNELS 3 Zrotation Yrotation Xrotation
				End Site #name: LeftFoot
				{
					OFFSET 0.367590 -34.656704 -6.067400
				}
			}
		}
	}
	JOINT Hips_RightUpLeg
	{
		OFFSET 0.000000 0.000000 0.000000
		CHANNELS 3 Zrotation Yrotation Xrotation
		JOINT RightUpLeg
		{
			OFFSET -6.876100 -6.733299 0.301000
			CHANNELS 3 Zrotation Yrotation Xrotation
			JOINT RightLeg
			{
				OFFSET 0.347353 -34.795158 -4.515900
				CHANNELS 3 Zrotation Yrotation Xrotation
				End Site #name: RightFoot
				{
					OFFSET -0.347353 -34.589367 -6.070300
				}
			}
		}
	}
}
MOTION
Frames: 9
Frame Time: 0.041667
5.790469 0.846708 1.644188 -3.948199 -8.770564 -1.178114 0.000000 0.000000 -0.000000 -0.275891 0.566500 4.277975 -0.808542 1.300106 8.748739 0.000000 0.000000 0.000000 -0.869303 1.203251 8.707505 1.422038 -2.235506 2.972711 -0.815485 1.292407 8.721865 3.181774 0.941344 0.430916 -74.722990 -10.826961 26.389264 -178.436450 -86.533742 178.244695 -0.800857 1.216610 8.534041 -3.778623 -1.764674 1.087610 77.101052 -9.410073 4.267737 -174.397821 84.177291 -174.646026 0.000000 -0.000000 -0.000000 1.412972 1.138177 -20.337612 -0.904030 0.440401 28.892384 0.000000 0.000000 -0.000000 -8.080866 0.279140 -16.099711 0.159384 -0.745739 19.385681 
5.976580 0.886409 1.684719 -3.902026 -8.938581 -1.219067 -0.000000 0.000000 -0.000000 -0.277155 0.570117 4.255976 -0.786983 1.290267 8.678958 0.000000 0.000000 0.000000 -0.851804 1.192610 8.620644 1.169000 -2.490038 3.011379 -0.797591 1.281294 8.642165 3.160108 0.884721 0.432916 -74.804518 -10.395829 26.146042 -178.748699 -86.520301 178.549840 -0.780194 1.207256 8.461493 -3.749085 -1.781260 1.063070 77.240283 -9.524114 4.067231 -174.159951 84.199969 -174.422358 0.000000 -0.000000 -0.000000 1.249232 1.095733 -20.153547 -0.884413 0.416413 28.514401 0.000000 0.000000 -0.000000 -8.232645 0.487628 -15.952179 0.121748 -0.739842 18.993639 
6.153425 0.922862 1.716539 -3.871383 -9.058905 -1.256347 -0.000000 -0.000000 -0.000000 -0.280488 0.569622 4.240520 -0.765370 1.282940 8.610488 0.000000 0.000000 0.000000 -0.834510 1.182613 8.524878 1.063925 -2.672674 3.107947 -0.782682 1.274035 8.567174 3.148292 0.840527 0.436391 -74.903831 -10.000125 25.946414 -179.158708 -86.512168 178.949840 -0.763090 1.201279 8.393152 -3.728142 -1.790468 1.039332 77.370928 -9.636541 3.907234 -173.898566 84.246107 -174.179859 -0.000000 -0.000000 -0.000000 1.108583 1.076303 -19.964012 -0.870548 0.399444 28.138461 0.000000 0.000000 -0.000000 -8.350101 0.665903 -15.789015 0.108520 -0.756635 18.619921 
6.320231 0.954131 1.736562 -3.862764 -9.138620 -1.280507 -0.000000 -0.000000 -0.000000 -0.281973 0.570141 4.234479 -0.745606 1.278488 8.550759 0.000000 0.000000 0.000000 -0.818227 1.176670 8.438465 0.981166 -2.804714 3.211363 -0.769602 1.269064 8.500982 3.149402 0.814473 0.442435 -74.999035 -9.649796 25.779498 -179.599083 -86.517511 179.379503 -0.747360 1.197655 8.336327 -3.703832 -1.781957 1.020570 77.478326 -9.754453 3.774553 -173.637818 84.305520 -173.939460 -0.000000 -0.000000 -0.000000 0.988231 1.083367 -19.779569 -0.861285 0.384610 27.790987 0.000000 0.000000 -0.000000 -8.448221 0.795601 -15.649124 0.082010 -0.772288 18.353185 
6.474070 0.979734 1.745231 -3.860718 -9.271248 -1.288899 -0.000000 -0.000000 -0.000000 -0.283665 0.567238 4.235052 -0.727054 1.277013 8.499765 0.000000 0.000000 0.000000 -0.803998 1.174961 8.365238 0.915411 -2.910443 3.303829 -0.757444 1.266275 8.445306 3.156744 0.814704 0.450853 -75.110741 -9.332893 25.632938 -179.950700 -86.517537 179.724849 -0.734349 1.198293 8.289047 -3.669639 -1.759579 1.007008 77.570635 -9.839391 3.696269 -173.417512 84.327658 -173.741826 0.000000 -0.000000 -0.000000 0.880838 1.121746 -19.600395 -0.853916 0.373401 27.494265 0.000000 0.000000 -0.000000 -8.533625 0.887402 -15.546013 0.060505 -0.765417 18.198522 
6.609477 0.998520 1.743582 -3.862259 -9.391538 -1.276342 -0.000000 -0.000000 -0.000000 -0.284167 0.563369 4.239746 -0.708877 1.276460 8.453516 0.000000 0.000000 0.000000 -0.789360 1.175543 8.304519 0.871351 -2.977862 3.365900 -0.746492 1.264875 8.400357 3.167511 0.834370 0.456572 -75.212839 -9.059656 25.506984 179.658352 -86.549555 -179.892348 -0.723317 1.202477 8.248375 -3.641716 -1.730703 0.994312 77.616943 -9.905604 3.657252 -173.272237 84.318275 -173.617770 0.000000 -0.000000 -0.000000 0.752757 1.195547 -19.457002 -0.847564 0.365511 27.246375 0.000000 0.000000 -0.000000 -8.613661 0.948040 -15.487572 0.043730 -0.750984 18.143309 
6.718159 1.010670 1.735422 -3.865787 -9.502481 -1.251844 -0.000000 -0.000000 -0.000000 -0.281972 0.558467 4.244376 -0.691554 1.278166 8.416784 0.000000 0.000000 0.000000 -0.774318 1.180028 8.253731 0.847743 -3.008447 3.387199 -0.735742 1.265039 8.365419 3.182533 0.870724 0.457907 -75.315811 -8.828198 25.405795 179.270068 -86.611874 -179.509091 -0.714066 1.211087 8.212953 -3.616085 -1.686569 0.981300 77.618581 -9.933742 3.653041 -173.235778 84.279819 -173.600388 0.000000 -0.000000 -0.000000 0.623966 1.274160 -19.344395 -0.844231 0.364967 27.084892 -0.000000 -0.000000 -0.000000 -8.702708 0.971702 -15.460781 0.029012 -0.740757 18.138966 
6.791781 1.016864 1.724820 -3.861210 -9.627663 -1.222963 -0.000000 -0.000000 -0.000000 -0.277924 0.551441 4.248480 -0.675842 1.281547 8.387848 0.000000 0.000000 0.000000 -0.758978 1.186709 8.214732 0.850596 -3.005641 3.369092 -0.724609 1.267634 8.341264 3.197636 0.917437 0.457546 -75.404681 -8.636511 25.319459 178.917892 -86.685117 -179.158745 -0.704784 1.223032 8.185888 -3.602271 -1.655523 0.968224 77.604042 -9.924437 3.686065 -173.299892 84.207060 -173.678597 0.000000 -0.000000 -0.000000 0.505882 1.354645 -19.265967 -0.839500 0.371314 26.986237 -0.000000 -0.000000 -0.000000 -8.818408 0.955426 -15.441387 0.021420 -0.732674 18.169387 
6.821953 1.018268 1.715729 -3.848647 -9.730809 -1.190350 -0.000000 -0.000000 -0.000000 -0.272445 0.544590 4.246521 -0.661557 1.287118 8.365627 0.000000 0.000000 0.000000 -0.742817 1.195449 8.182556 0.880356 -2.970259 3.317670 -0.713375 1.272352 8.325273 3.213228 0.975407 0.455129 -75.477783 -8.467768 25.233417 178.566087 -86.769213 -178.806593 -0.695632 1.238046 8.166858 -3.583561 -1.625601 0.959709 77.568190 -9.893312 3.734829 -173.431910 84.128453 -173.820933 0.000000 -0.000000 -0.000000 0.396309 1.430248 -19.213825 -0.831785 0.381224 26.945849 -0.000000 -0.000000 -0.000000 -8.950536 0.906257 -15.432576 0.016999 -0.728294 18.230661 
